<?xml version="1.0" encoding="utf-8"?>
<!-- Generator: Adobe Illustrator 15.0.2, SVG Export Plug-In . SVG Version: 6.00 Build 0)  -->
<!DOCTYPE svg PUBLIC "-//W3C//DTD SVG 1.1//EN" "http://www.w3.org/Graphics/SVG/1.1/DTD/svg11.dtd">
<svg version="1.1" id="Ebene_2" xmlns="http://www.w3.org/2000/svg" xmlns:xlink="http://www.w3.org/1999/xlink" x="0px" y="0px"
	 width="693.92px" height="413.01px" viewBox="0 0 693.92 413.01" enable-background="new 0 0 693.92 413.01" xml:space="preserve">
<path fill="#FFFFFF" d="M319.104,23c-102.285,0-185.201,82.917-185.201,185.2c0,102.282,82.917,185.198,185.201,185.198
	c102.28,0,185.196-82.916,185.196-185.198C504.301,105.917,421.385,23,319.104,23z M325.194,249.211h-0.005
	c-2.681,3.364-6.806,5.523-11.434,5.523c-8.065,0-14.629-6.562-14.629-14.629c0-0.049,0.007-0.091,0.007-0.149V57.166h29.245
	v141.114l87.919-110.375l22.871,18.22L325.194,249.211z"/>
</svg>
