<?xml version="1.0" encoding="utf-8"?>
<!-- Generator: Adobe Illustrator 15.0.2, SVG Export Plug-In . SVG Version: 6.00 Build 0)  -->
<!DOCTYPE svg PUBLIC "-//W3C//DTD SVG 1.1//EN" "http://www.w3.org/Graphics/SVG/1.1/DTD/svg11.dtd">
<svg version="1.1" id="Ebene_1" xmlns="http://www.w3.org/2000/svg" xmlns:xlink="http://www.w3.org/1999/xlink" x="0px" y="0px"
	 width="693.92px" height="413.01px" viewBox="0 0 693.92 413.01" enable-background="new 0 0 693.92 413.01" xml:space="preserve">
<path fill="#0082CA" d="M324.687,31.547c-99.656,0-180.441,80.786-180.441,180.44c0,99.653,80.785,180.438,180.441,180.438
	c99.651,0,180.437-80.785,180.437-180.438C505.123,112.333,424.338,31.547,324.687,31.547z M330.619,251.944h-0.004
	c-2.613,3.277-6.631,5.382-11.14,5.382c-7.858,0-14.253-6.394-14.253-14.254c0-0.048,0.007-0.088,0.007-0.145V64.833h28.493v137.488
	L419.38,94.783l22.284,17.753L330.619,251.944z"/>
</svg>
